<svg width="241" height="210" viewBox="0 0 241 210" fill="none" xmlns="http://www.w3.org/2000/svg">
<g clip-path="url(#clip0)">
<path d="M62.1589 206.436C57.052 205.37 -4.28022 195.746 0.243094 124.72C4.7664 53.718 10.4327 32.3616 34.2652 24.5318C58.0977 16.7262 116.074 -20.2414 161.55 14.9081C207.026 50.0576 256.078 81.5951 236.622 137.737C217.143 193.855 213.957 212.594 163.155 209.733C112.329 206.848 86.4292 211.527 62.1589 206.436Z" fill="#F7FAFC"/>
<path d="M67.4606 187.504C65.9042 186.971 65.2963 186.316 66.0015 185.541C70.7923 180.208 93.7007 180.183 104.79 180.111C118.749 180.014 133.268 179.771 145.913 180.983C151.215 181.492 163.155 181.904 165.295 183.674C170.913 188.353 132.951 189.928 126.799 190.025C116.536 190.243 76.3613 190.583 67.4606 187.504Z" fill="#E2E8F0"/>
<path d="M135.213 171.237L147.737 161.444C149.269 160.256 151.531 160.886 152.188 162.704L159.046 181.515C159.921 183.915 157.465 186.145 155.155 185.078L135.772 176.061C133.827 175.164 133.535 172.546 135.213 171.237Z" fill="#CBD5E0"/>
<path d="M137.791 169.637L148.297 161.225C149.586 160.207 151.507 160.789 152.091 162.389L158.097 178.848C158.851 180.933 156.808 182.872 154.839 181.903L138.326 173.831C136.648 173.031 136.381 170.752 137.791 169.637Z" fill="#E2E8F0"/>
<path d="M97.3244 171.237L84.8002 161.444C83.2681 160.256 81.0064 160.886 80.3498 162.704L73.4919 181.515C72.6164 183.915 75.0726 186.145 77.3829 185.078L96.7651 176.061C98.6863 175.164 99.0024 172.546 97.3244 171.237Z" fill="#CBD5E0"/>
<path d="M94.7715 169.831L84.2657 161.225C82.9768 160.183 81.0313 160.813 80.4233 162.462L74.1491 179.649C73.3465 181.83 75.4136 183.818 77.4078 182.8L94.1878 174.219C95.8658 173.37 96.182 170.995 94.7715 169.831Z" fill="#E2E8F0"/>
<path d="M135.675 171.334C139.323 168.473 142.971 165.637 146.618 162.777C147.129 162.389 147.615 161.904 148.175 161.565C149.634 160.643 151.117 161.613 151.677 163.043C152.382 164.861 153.014 166.679 153.671 168.498C155.276 172.861 157.075 177.2 158.462 181.636C159.045 183.527 157.683 185.612 155.568 184.739C155.008 184.521 154.473 184.23 153.938 183.988C151.555 182.872 149.196 181.782 146.813 180.666C143.992 179.357 141.171 178.048 138.35 176.715C137.693 176.4 137.012 176.133 136.356 175.794C134.605 174.921 134.094 172.691 135.675 171.334C136.186 170.897 135.018 170.873 134.726 171.14C133.316 172.352 133.048 174.485 134.483 175.818C134.97 176.255 135.602 176.497 136.161 176.764C138.666 177.927 141.147 179.091 143.651 180.254C146.521 181.588 149.391 182.921 152.26 184.254C154.06 185.103 155.884 186.29 157.902 185.272C159.41 184.521 160.115 182.945 159.605 181.345C159.386 180.691 159.118 180.036 158.899 179.382C157.829 176.449 156.759 173.54 155.689 170.606C154.79 168.134 153.89 165.661 152.99 163.189C152.674 162.34 152.333 161.54 151.531 161.031C150.169 160.159 148.467 160.474 147.226 161.371C142.946 164.474 138.885 167.891 134.726 171.14C134.216 171.552 135.383 171.576 135.675 171.334Z" fill="#4A5568"/>
<path d="M97.8596 170.994C93.8713 167.892 89.9074 164.764 85.9191 161.662C85.1652 161.08 84.4599 160.571 83.4629 160.498C81.8335 160.377 80.3501 161.298 79.7178 162.777C78.9639 164.619 78.3559 166.534 77.675 168.401C76.532 171.503 75.4133 174.631 74.2703 177.733C73.711 179.285 72.2519 181.806 72.8355 183.503C73.4192 185.297 75.4133 186 77.1157 185.466C77.675 185.297 78.21 185.006 78.7207 184.763C81.3228 183.551 83.9006 182.363 86.5027 181.151C89.5426 179.745 92.5581 178.339 95.598 176.933C96.2303 176.643 96.9112 176.376 97.4949 176.012C99.2945 174.849 99.489 172.4 97.8596 170.994C97.5435 170.728 96.4491 171.164 96.7653 171.455C98.1515 172.667 98.2001 174.873 96.4735 175.843C95.9628 176.109 95.4278 176.327 94.8927 176.57C92.4852 177.685 90.1019 178.8 87.6944 179.915C85.1166 181.103 82.5631 182.315 79.9853 183.503C78.3316 184.278 76.1186 185.878 74.5378 184.157C73.1274 182.606 74.4406 180.303 75.0485 178.679C76.0456 175.988 77.0184 173.273 78.0154 170.582C78.8666 168.255 79.7178 165.928 80.5689 163.625C80.7878 162.995 80.9823 162.292 81.4687 161.807C82.6117 160.668 83.852 161.395 84.849 162.171C88.8373 165.273 92.8013 168.401 96.7896 171.503C97.1058 171.722 98.2001 171.261 97.8596 170.994Z" fill="#4A5568"/>
<path d="M158.774 161.319C182.25 137.917 182.25 99.9761 158.774 76.5746C135.297 53.1732 97.2339 53.1732 73.7572 76.5746C50.2806 99.9761 50.2806 137.917 73.7572 161.319C97.2339 184.72 135.297 184.72 158.774 161.319Z" fill="white"/>
<path d="M176.386 118.951C176.386 85.8616 149.465 60.1176 116.269 59.6085C83.9495 59.1237 60.5791 85.8616 60.5791 118.951C60.5791 152.04 92.1693 175.941 116.269 175.941C149.465 175.941 176.386 152.04 176.386 118.951Z" fill="white"/>
<path d="M173 120.135C173 88.2801 146.964 63.4963 114.86 63.0062C83.6023 62.5395 61 88.2801 61 120.135C61 151.99 91.5519 175 114.86 175C146.964 175 173 151.99 173 120.135Z" fill="url(#paint0_linear)"/>
<path d="M176.969 118.902C176.944 106.418 173.078 94.1521 165.782 83.9709C158.705 74.0563 148.613 66.4204 137.134 62.2752C125.17 57.936 111.867 57.4997 99.6348 60.9904C87.9131 64.3114 77.2858 71.2201 69.4794 80.5772C61.5514 90.1039 56.6634 101.958 55.6906 114.296C54.7178 126.829 57.6847 139.483 64.2265 150.246C70.5737 160.694 80.1311 169.081 91.3177 174.051C102.821 179.165 115.831 180.547 128.185 178.075C140.199 175.675 151.361 169.566 159.873 160.791C168.482 151.918 174.269 140.477 176.191 128.283C176.726 125.181 176.969 122.029 176.969 118.902C176.969 118.345 175.777 118.563 175.777 119.023C175.753 131.241 172.008 143.264 164.955 153.276C158.049 163.118 148.151 170.73 136.843 174.899C125.072 179.238 111.964 179.65 99.9266 176.208C88.3508 172.887 77.9667 166.003 70.3062 156.742C62.5972 147.385 57.8793 135.774 56.9065 123.726C55.9095 111.387 58.8034 98.8791 65.175 88.2616C71.3276 78.0318 80.5688 69.7414 91.4637 64.7478C102.894 59.5117 115.953 58.1057 128.258 60.651C140.077 63.1236 151.021 69.2324 159.338 77.9591C167.63 86.6859 173.175 97.8368 175.048 109.715C175.534 112.793 175.777 115.896 175.777 119.023C175.801 119.557 176.969 119.339 176.969 118.902Z" fill="#4A5568"/>
<path d="M144.604 147.195C160.255 131.594 160.255 106.3 144.604 90.6987C128.953 75.0977 103.578 75.0977 87.9267 90.6987C72.2756 106.3 72.2756 131.594 87.9267 147.195C103.578 162.796 128.953 162.796 144.604 147.195Z" fill="#EDF2F7"/>
<path d="M119.6 156.306C139.858 156.306 156.273 139.58 156.273 118.951C156.273 98.3216 139.834 80.7953 119.6 80.1408C96.3028 79.3893 80.8604 98.3216 80.8604 118.951C80.8604 139.58 99.3427 156.306 119.6 156.306Z" fill="white"/>
<path d="M138.35 158.245C139.955 161.033 141.584 163.821 143.189 166.608C143.36 166.899 144.454 166.463 144.357 166.293C142.752 163.505 141.122 160.718 139.517 157.93C139.347 157.639 138.253 158.075 138.35 158.245Z" fill="#4A5568"/>
<path d="M88.1564 71.608C89.6398 74.1775 91.1233 76.7228 92.6067 79.2924C92.777 79.5833 93.8713 79.1469 93.7741 78.9772C92.2906 76.4077 90.8071 73.8624 89.3237 71.2928C89.1778 71.0019 88.0591 71.4383 88.1564 71.608Z" fill="#4A5568"/>
<path d="M155.568 142.101C158.17 143.604 160.772 145.082 163.374 146.585C163.666 146.755 164.639 146.27 164.469 146.173C161.866 144.67 159.264 143.191 156.662 141.689C156.37 141.519 155.422 142.004 155.568 142.101Z" fill="#4A5568"/>
<path d="M68.0441 91.7281C70.403 93.0856 72.762 94.4431 75.0966 95.8006C75.3884 95.9703 76.3612 95.4854 76.1909 95.3885C73.832 94.031 71.4731 92.6735 69.1385 91.316C68.871 91.1463 67.8982 91.6311 68.0441 91.7281Z" fill="#4A5568"/>
<path d="M157.319 95.6066C159.678 94.2491 162.013 92.9159 164.371 91.5584C164.858 91.2675 163.691 91.3887 163.472 91.5099C161.113 92.8674 158.778 94.2006 156.419 95.5581C155.933 95.849 157.1 95.7278 157.319 95.6066Z" fill="#4A5568"/>
<path d="M69.0659 146.391C71.2303 145.155 73.3703 143.919 75.5347 142.682C76.0211 142.391 74.8538 142.513 74.6349 142.634C72.4705 143.87 70.3305 145.106 68.1661 146.343C67.6554 146.634 68.847 146.537 69.0659 146.391Z" fill="#4A5568"/>
<path d="M140.126 78.6377C141.536 76.2136 142.947 73.7652 144.357 71.3411C144.455 71.1957 143.36 71.2442 143.19 71.5351C141.78 73.9592 140.369 76.4075 138.959 78.8316C138.886 79.0013 139.956 78.9286 140.126 78.6377Z" fill="#4A5568"/>
<path d="M89.3232 166.342C90.758 163.845 92.2172 161.348 93.652 158.876C93.7493 158.73 92.6549 158.779 92.4847 159.07C91.0499 161.567 89.5907 164.063 88.1559 166.536C88.0829 166.706 89.153 166.657 89.3232 166.342Z" fill="#4A5568"/>
<path d="M115.686 164.403C115.686 167.409 115.686 170.39 115.686 173.396C115.686 173.59 116.853 173.42 116.853 173.081C116.853 170.075 116.853 167.093 116.853 164.088C116.853 163.894 115.686 164.063 115.686 164.403Z" fill="#4A5568"/>
<path d="M115.686 63.681C115.686 66.7111 115.686 69.7413 115.686 72.7472C115.686 72.9411 116.853 72.7714 116.853 72.432C116.853 69.4019 116.853 66.3718 116.853 63.3659C116.853 63.172 115.686 63.3417 115.686 63.681Z" fill="#4A5568"/>
<path d="M69.1631 118.708C66.6582 118.708 64.1291 118.708 61.6242 118.708C61.3811 118.708 60.2867 119.193 60.8704 119.193C63.3752 119.193 65.9044 119.193 68.4092 119.193C68.6524 119.193 69.7224 118.708 69.1631 118.708Z" fill="#4A5568"/>
<path d="M171.667 118.708C168.919 118.708 166.196 118.708 163.447 118.708C163.204 118.708 162.11 119.193 162.694 119.193C165.442 119.193 168.165 119.193 170.913 119.193C171.181 119.193 172.251 118.708 171.667 118.708Z" fill="#4A5568"/>
<path d="M60.6031 87.8008C60.6031 87.8008 66.3424 78.5407 73.103 72.5289C78.6234 67.608 88.886 62.081 88.886 62.081C81.7606 54.2997 69.6497 53.7421 61.8434 60.869C54.037 67.9958 53.4777 80.0194 60.6031 87.8008Z" fill="url(#paint1_linear)"/>
<path opacity="0.15" d="M59.8972 80.7224C60.3836 81.7648 61.7941 81.9587 62.548 81.0618C64.7124 78.5407 67.8008 73.8137 72.0323 70.0564C75.0236 67.4141 80.5196 64.5779 83.6081 62.7114C85.505 61.572 85.432 58.7843 83.4622 57.7904C77.0907 54.5421 67.5333 55.6572 63.2046 59.6085C56.7114 65.4991 56.1521 72.8926 59.8972 80.7224Z" fill="white"/>
<path d="M61.1869 87.704C63.6188 83.777 66.4398 80.0439 69.5283 76.6259C73.8813 71.7777 79.1099 68.1173 84.6789 64.772C86.1867 63.8751 87.6945 62.9782 89.2265 62.154C89.3238 62.1055 89.567 61.9843 89.4454 61.8631C83.925 55.9483 75.3161 54.106 67.753 56.9422C60.1169 59.8268 54.8883 67.1961 55.0099 75.3896C55.0828 80.0923 56.9068 84.5285 60.0439 88.0192C60.2384 88.2373 61.3328 87.8252 61.1382 87.6071C56.0556 81.9589 54.7181 73.717 57.9282 66.784C61.3571 59.439 69.3337 55.0029 77.4076 56.3361C81.6147 57.0391 85.4085 59.1481 88.3024 62.2509C88.3754 62.154 88.4483 62.057 88.5213 61.9601C84.5816 64.0933 80.7393 66.4446 77.0671 69.0142C71.5467 72.8928 67.0964 77.8137 63.1567 83.2437C62.0624 84.7466 60.9923 86.2738 59.9953 87.8737C59.9223 88.0434 60.9923 87.9949 61.1869 87.704Z" fill="#4A5568"/>
<path d="M172.275 87.8013C172.275 87.8013 166.536 78.5412 159.775 72.5294C154.255 67.6085 143.992 62.0815 143.992 62.0815C151.118 54.3002 163.228 53.7426 171.035 60.8695C178.841 67.9479 179.4 80.0199 172.275 87.8013Z" fill="url(#paint2_linear)"/>
<path opacity="0.15" d="M172.98 80.7224C172.493 81.7648 171.083 81.9587 170.329 81.0618C168.165 78.5407 165.076 73.8137 160.845 70.0564C157.853 67.4141 152.357 64.5779 149.269 62.7114C147.372 61.572 147.445 58.7843 149.415 57.7904C155.786 54.5421 165.344 55.6572 169.672 59.6085C176.166 65.4991 176.701 72.8926 172.98 80.7224Z" fill="white"/>
<path d="M172.859 87.6555C170.159 83.3163 166.998 79.1711 163.52 75.4622C158.9 70.517 153.185 66.8324 147.348 63.4629C146.57 63.0023 145.792 62.566 144.989 62.1296C144.941 62.1054 144.576 61.96 144.576 61.8872C144.552 61.7418 146.108 60.5055 146.303 60.3358C149.221 57.8632 152.869 56.3845 156.687 56.1421C163.982 55.6815 171.059 59.7298 174.464 66.1537C178.209 73.2078 177.066 81.9346 171.74 87.8494C171.497 88.116 172.616 87.9948 172.81 87.7767C178.355 81.6194 179.498 72.4806 175.315 65.2567C171.205 58.1541 162.937 54.518 154.911 55.9239C150.51 56.6997 146.497 58.8571 143.457 62.1054C143.433 62.1539 143.36 62.2266 143.433 62.2751C147.275 64.3598 151.045 66.6627 154.644 69.1838C160.237 73.1108 164.736 78.0803 168.7 83.6072C169.722 85.0374 170.743 86.4919 171.667 87.9948C171.862 88.2615 172.956 87.8252 172.859 87.6555Z" fill="#4A5568"/>
<path d="M71.0114 51.1482C65.9287 48.8453 59.7517 50.1543 55.4959 53.5965C50.6565 57.4993 48.565 63.8263 48.4678 69.8623C48.4678 70.1532 49.6351 69.9592 49.6351 69.5471C49.7324 64.2384 51.3617 58.7356 55.1555 54.8813C58.9978 50.9785 64.9803 49.3544 70.0629 51.6815C70.3548 51.8027 71.4248 51.3421 71.0114 51.1482Z" fill="#4A5568"/>
<path d="M72.2031 44.6759C66.5125 42.3488 59.9707 42.8821 54.3774 45.2577C48.5409 47.7545 44.0419 52.4573 41.6343 58.2994C40.2481 61.6931 39.5672 65.3293 39.5186 68.9655C39.5186 69.1836 40.6859 69.0139 40.6859 68.6503C40.8075 61.1598 43.6771 53.6451 49.5379 48.7727C55.4474 43.8517 64.0806 42.2033 71.2547 45.1365C71.4979 45.2577 72.5679 44.8214 72.2031 44.6759Z" fill="#4A5568"/>
<path d="M164.25 50.5904C169.284 48.3117 175.315 50.1298 179.109 53.9114C182.951 57.7657 184.605 63.2927 184.678 68.6257C184.678 68.9166 185.869 68.7227 185.845 68.3106C185.748 62.3473 183.656 56.0446 178.817 52.263C174.61 48.9662 168.724 47.9481 163.788 50.1783C163.058 50.5419 163.763 50.8085 164.25 50.5904Z" fill="#4A5568"/>
<path d="M163.058 44.1182C170.135 41.2335 178.793 43.1485 184.629 47.924C190.539 52.7722 193.408 60.2627 193.53 67.7532C193.53 67.9713 194.721 67.8017 194.697 67.438C194.6 61.1111 192.557 54.8327 188.326 50.033C184.289 45.4514 178.403 42.7122 172.324 42.3001C169.016 42.0819 165.685 42.5668 162.621 43.8031C161.867 44.1424 162.596 44.3121 163.058 44.1182Z" fill="#4A5568"/>
<path d="M80.2284 97.085C84.241 99.6788 88.2536 102.273 92.2906 104.866C98.7108 109.012 105.107 113.133 111.527 117.278C113.01 118.223 114.494 119.193 115.977 120.138C116.269 120.308 117.242 119.847 117.072 119.726C113.059 117.132 109.046 114.539 105.009 111.945C98.5892 107.8 92.1933 103.679 85.7731 99.5334C84.2897 98.588 82.8062 97.6183 81.3228 96.6729C81.0553 96.5032 80.0582 96.9881 80.2284 97.085Z" fill="#4A5568"/>
<path d="M145.961 95.873C137.45 102.854 128.962 109.836 120.451 116.793C119.259 117.763 118.067 118.757 116.876 119.726C116.633 119.92 117.727 119.823 117.946 119.653C126.457 112.672 134.945 105.691 143.456 98.7334C144.648 97.7638 145.84 96.7699 147.031 95.8003C147.274 95.5821 146.18 95.6791 145.961 95.873Z" fill="#4A5568"/>
<path d="M119.831 122.059C121.557 120.095 121.359 117.109 119.389 115.389C117.419 113.668 114.423 113.866 112.697 115.83C110.971 117.793 111.169 120.78 113.139 122.5C115.109 124.22 118.105 124.023 119.831 122.059Z" fill="#FE95C8"/>
<path d="M118.209 120.885C119.282 119.815 119.282 118.081 118.209 117.011C117.136 115.942 115.396 115.942 114.323 117.011C113.25 118.081 113.25 119.815 114.323 120.885C115.396 121.955 117.136 121.955 118.209 120.885Z" fill="#FFC7E2"/>
</g>
<defs>
<linearGradient id="paint0_linear" x1="117" y1="63" x2="117" y2="175" gradientUnits="userSpaceOnUse">
<stop stop-color="#FEA6D0"/>
<stop offset="1" stop-color="#FF7EBC"/>
</linearGradient>
<linearGradient id="paint1_linear" x1="72.2447" y1="55.8647" x2="72.2447" y2="87.8008" gradientUnits="userSpaceOnUse">
<stop stop-color="#00B6F3"/>
<stop offset="1" stop-color="#008DF3"/>
</linearGradient>
<linearGradient id="paint2_linear" x1="160.633" y1="55.8652" x2="160.633" y2="87.8013" gradientUnits="userSpaceOnUse">
<stop stop-color="#00B6F3"/>
<stop offset="1" stop-color="#008DF3"/>
</linearGradient>
<clipPath id="clip0">
<rect width="241" height="210" fill="white"/>
</clipPath>
</defs>
</svg>
